<svg xmlns="http://www.w3.org/2000/svg" xmlns:xlink="http://www.w3.org/1999/xlink" width="500" zoomAndPan="magnify" viewBox="0 0 375 374.999991" height="500" preserveAspectRatio="xMidYMid meet" version="1.0"><defs><clipPath id="2a591a133c"><path d="M 37.5 37.5 L 337.5 37.5 L 337.5 337.5 L 37.5 337.5 Z M 37.5 37.5 " clip-rule="nonzero"/></clipPath><clipPath id="04bc2f5be6"><path d="M 187.5 37.5 C 104.65625 37.5 37.5 104.65625 37.5 187.5 C 37.5 270.34375 104.65625 337.5 187.5 337.5 C 270.34375 337.5 337.5 270.34375 337.5 187.5 C 337.5 104.65625 270.34375 37.5 187.5 37.5 Z M 187.5 37.5 " clip-rule="nonzero"/></clipPath><clipPath id="efa1092cbc"><path d="M 0.5 0.5 L 300.5 0.5 L 300.5 300.5 L 0.5 300.5 Z M 0.5 0.5 " clip-rule="nonzero"/></clipPath><clipPath id="017eaa8209"><path d="M 150.5 0.5 C 67.65625 0.5 0.5 67.65625 0.5 150.5 C 0.5 233.34375 67.65625 300.5 150.5 300.5 C 233.34375 300.5 300.5 233.34375 300.5 150.5 C 300.5 67.65625 233.34375 0.5 150.5 0.5 Z M 150.5 0.5 " clip-rule="nonzero"/></clipPath><clipPath id="de8435c465"><rect x="0" width="301" y="0" height="301"/></clipPath><clipPath id="7ea3f51f5a"><path d="M 0.644531 58.304688 L 202.355469 58.304688 L 202.355469 260.015625 L 0.644531 260.015625 Z M 0.644531 58.304688 " clip-rule="nonzero"/></clipPath><clipPath id="4dc054dd6b"><path d="M 101.5 58.304688 C 45.800781 58.304688 0.644531 103.457031 0.644531 159.160156 C 0.644531 214.859375 45.800781 260.015625 101.5 260.015625 C 157.199219 260.015625 202.355469 214.859375 202.355469 159.160156 C 202.355469 103.457031 157.199219 58.304688 101.5 58.304688 Z M 101.5 58.304688 " clip-rule="nonzero"/></clipPath><clipPath id="6fd2839b5d"><path d="M 0.644531 0.304688 L 202.355469 0.304688 L 202.355469 202.015625 L 0.644531 202.015625 Z M 0.644531 0.304688 " clip-rule="nonzero"/></clipPath><clipPath id="5184c493ca"><path d="M 101.5 0.304688 C 45.800781 0.304688 0.644531 45.457031 0.644531 101.160156 C 0.644531 156.859375 45.800781 202.015625 101.5 202.015625 C 157.199219 202.015625 202.355469 156.859375 202.355469 101.160156 C 202.355469 45.457031 157.199219 0.304688 101.5 0.304688 Z M 101.5 0.304688 " clip-rule="nonzero"/></clipPath><clipPath id="8149d883e7"><rect x="0" width="203" y="0" height="203"/></clipPath><clipPath id="e9baf4bdce"><path d="M 107.835938 111.898438 L 202.355469 111.898438 L 202.355469 206.417969 L 107.835938 206.417969 Z M 107.835938 111.898438 " clip-rule="nonzero"/></clipPath><clipPath id="15ec9bb781"><path d="M 0.835938 0.898438 L 95.355469 0.898438 L 95.355469 95.417969 L 0.835938 95.417969 Z M 0.835938 0.898438 " clip-rule="nonzero"/></clipPath><clipPath id="6c988cf340"><rect x="0" width="96" y="0" height="96"/></clipPath><clipPath id="a20a29b06a"><path d="M 54.242188 111.898438 L 148.757812 111.898438 L 148.757812 206.417969 L 54.242188 206.417969 Z M 54.242188 111.898438 " clip-rule="nonzero"/></clipPath><clipPath id="98d6d4343c"><path d="M 101.5 111.898438 C 75.398438 111.898438 54.242188 133.058594 54.242188 159.160156 C 54.242188 185.257812 75.398438 206.417969 101.5 206.417969 C 127.601562 206.417969 148.757812 185.257812 148.757812 159.160156 C 148.757812 133.058594 127.601562 111.898438 101.5 111.898438 Z M 101.5 111.898438 " clip-rule="nonzero"/></clipPath><clipPath id="2dcea193a4"><path d="M 0.242188 0.898438 L 94.757812 0.898438 L 94.757812 95.417969 L 0.242188 95.417969 Z M 0.242188 0.898438 " clip-rule="nonzero"/></clipPath><clipPath id="4804888bcb"><path d="M 47.5 0.898438 C 21.398438 0.898438 0.242188 22.058594 0.242188 48.160156 C 0.242188 74.257812 21.398438 95.417969 47.5 95.417969 C 73.601562 95.417969 94.757812 74.257812 94.757812 48.160156 C 94.757812 22.058594 73.601562 0.898438 47.5 0.898438 Z M 47.5 0.898438 " clip-rule="nonzero"/></clipPath><clipPath id="6646534fed"><rect x="0" width="95" y="0" height="96"/></clipPath><clipPath id="f1b0b4c9df"><path d="M 107.835938 116.96875 L 128.480469 116.96875 L 128.480469 206.417969 L 107.835938 206.417969 Z M 107.835938 116.96875 " clip-rule="nonzero"/></clipPath><clipPath id="121e71bd1e"><path d="M 0.835938 0.96875 L 21.480469 0.96875 L 21.480469 90.417969 L 0.835938 90.417969 Z M 0.835938 0.96875 " clip-rule="nonzero"/></clipPath><clipPath id="5dcb0ad361"><rect x="0" width="22" y="0" height="91"/></clipPath><clipPath id="ce25596703"><path d="M 128.125 116.972656 L 190.238281 116.972656 L 190.238281 137.613281 L 128.125 137.613281 Z M 128.125 116.972656 " clip-rule="nonzero"/></clipPath><clipPath id="8b4b659ac2"><path d="M 0.125 0.972656 L 62.238281 0.972656 L 62.238281 21.613281 L 0.125 21.613281 Z M 0.125 0.972656 " clip-rule="nonzero"/></clipPath><clipPath id="b2913781cd"><rect x="0" width="63" y="0" height="22"/></clipPath><clipPath id="f85e18c83d"><path d="M 128.125 159.160156 L 190.238281 159.160156 L 190.238281 179.800781 L 128.125 179.800781 Z M 128.125 159.160156 " clip-rule="nonzero"/></clipPath><clipPath id="4839b35799"><path d="M 0.125 0.160156 L 62.238281 0.160156 L 62.238281 20.800781 L 0.125 20.800781 Z M 0.125 0.160156 " clip-rule="nonzero"/></clipPath><clipPath id="795d7c1def"><rect x="0" width="63" y="0" height="21"/></clipPath><clipPath id="74a336ac82"><path d="M 101 1 L 163 1 L 163 85 L 101 85 Z M 101 1 " clip-rule="nonzero"/></clipPath><clipPath id="645e618083"><path d="M 144.21875 1.136719 L 162.417969 11.777344 L 119.695312 84.847656 L 101.5 74.207031 Z M 144.21875 1.136719 " clip-rule="nonzero"/></clipPath><clipPath id="7e9401089c"><path d="M 0.441406 0.078125 L 61.640625 0.078125 L 61.640625 84 L 0.441406 84 Z M 0.441406 0.078125 " clip-rule="nonzero"/></clipPath><clipPath id="8407df720c"><path d="M 43.21875 0.136719 L 61.417969 10.777344 L 18.695312 83.847656 L 0.5 73.207031 Z M 43.21875 0.136719 " clip-rule="nonzero"/></clipPath><clipPath id="6b033100f4"><rect x="0" width="62" y="0" height="84"/></clipPath><clipPath id="09ad0cdeb2"><path d="M 41 0.839844 L 102 0.839844 L 102 85 L 41 85 Z M 41 0.839844 " clip-rule="nonzero"/></clipPath><clipPath id="6722493a8f"><path d="M 41.375 11.394531 L 59.707031 0.984375 L 101.5 74.585938 L 83.167969 84.996094 Z M 41.375 11.394531 " clip-rule="nonzero"/></clipPath><clipPath id="ab525c22fa"><path d="M 0.199219 0.839844 L 60.679688 0.839844 L 60.679688 85 L 0.199219 85 Z M 0.199219 0.839844 " clip-rule="nonzero"/></clipPath><clipPath id="053f1f736b"><path d="M 0.375 11.394531 L 18.707031 0.984375 L 60.5 74.585938 L 42.167969 84.996094 Z M 0.375 11.394531 " clip-rule="nonzero"/></clipPath><clipPath id="6b39bd28ff"><rect x="0" width="61" y="0" height="85"/></clipPath><clipPath id="f669965dfc"><path d="M 55.871094 74.507812 L 87.003906 74.507812 L 87.003906 105.640625 L 55.871094 105.640625 Z M 55.871094 74.507812 " clip-rule="nonzero"/></clipPath><clipPath id="b725986c52"><path d="M 71.4375 74.507812 C 62.839844 74.507812 55.871094 81.476562 55.871094 90.074219 C 55.871094 98.671875 62.839844 105.640625 71.4375 105.640625 C 80.035156 105.640625 87.003906 98.671875 87.003906 90.074219 C 87.003906 81.476562 80.035156 74.507812 71.4375 74.507812 Z M 71.4375 74.507812 " clip-rule="nonzero"/></clipPath><clipPath id="e566a10e2d"><path d="M 0.871094 0.507812 L 32.003906 0.507812 L 32.003906 31.640625 L 0.871094 31.640625 Z M 0.871094 0.507812 " clip-rule="nonzero"/></clipPath><clipPath id="d86f743a64"><path d="M 16.4375 0.507812 C 7.839844 0.507812 0.871094 7.476562 0.871094 16.074219 C 0.871094 24.671875 7.839844 31.640625 16.4375 31.640625 C 25.035156 31.640625 32.003906 24.671875 32.003906 16.074219 C 32.003906 7.476562 25.035156 0.507812 16.4375 0.507812 Z M 16.4375 0.507812 " clip-rule="nonzero"/></clipPath><clipPath id="87bd8b502a"><rect x="0" width="33" y="0" height="32"/></clipPath><clipPath id="7705a20b01"><path d="M 116.390625 74.507812 L 147.523438 74.507812 L 147.523438 105.640625 L 116.390625 105.640625 Z M 116.390625 74.507812 " clip-rule="nonzero"/></clipPath><clipPath id="72dc24d6bf"><path d="M 131.957031 74.507812 C 123.363281 74.507812 116.390625 81.476562 116.390625 90.074219 C 116.390625 98.671875 123.363281 105.640625 131.957031 105.640625 C 140.554688 105.640625 147.523438 98.671875 147.523438 90.074219 C 147.523438 81.476562 140.554688 74.507812 131.957031 74.507812 Z M 131.957031 74.507812 " clip-rule="nonzero"/></clipPath><clipPath id="3b933b9a3e"><path d="M 0.390625 0.507812 L 31.523438 0.507812 L 31.523438 31.640625 L 0.390625 31.640625 Z M 0.390625 0.507812 " clip-rule="nonzero"/></clipPath><clipPath id="a8566dad89"><path d="M 15.957031 0.507812 C 7.363281 0.507812 0.390625 7.476562 0.390625 16.074219 C 0.390625 24.671875 7.363281 31.640625 15.957031 31.640625 C 24.554688 31.640625 31.523438 24.671875 31.523438 16.074219 C 31.523438 7.476562 24.554688 0.507812 15.957031 0.507812 Z M 15.957031 0.507812 " clip-rule="nonzero"/></clipPath><clipPath id="fc2b2fdf22"><rect x="0" width="32" y="0" height="32"/></clipPath><clipPath id="0fef0aee1d"><path d="M 19.875 180.238281 L 71.335938 180.238281 L 71.335938 231.699219 L 19.875 231.699219 Z M 19.875 180.238281 " clip-rule="nonzero"/></clipPath><clipPath id="bc18b054da"><rect x="0" width="203" y="0" height="261"/></clipPath></defs><g clip-path="url(#2a591a133c)"><g clip-path="url(#04bc2f5be6)"><g transform="matrix(1, 0, 0, 1, 37, 37)"><g clip-path="url(#de8435c465)"><g clip-path="url(#efa1092cbc)"><g clip-path="url(#017eaa8209)"><path fill="#ffffff" d="M 0.5 0.5 L 300.5 0.5 L 300.5 300.5 L 0.5 300.5 Z M 0.5 0.5 " fill-opacity="1" fill-rule="nonzero"/></g></g></g></g></g></g><g transform="matrix(1, 0, 0, 1, 86, 57)"><g clip-path="url(#bc18b054da)"><g clip-path="url(#7ea3f51f5a)"><g clip-path="url(#4dc054dd6b)"><g transform="matrix(1, 0, 0, 1, 0, 58)"><g clip-path="url(#8149d883e7)"><g clip-path="url(#6fd2839b5d)"><g clip-path="url(#5184c493ca)"><path fill="#555a92" d="M 0.644531 0.304688 L 202.355469 0.304688 L 202.355469 202.015625 L 0.644531 202.015625 Z M 0.644531 0.304688 " fill-opacity="1" fill-rule="nonzero"/></g></g></g></g></g></g><g clip-path="url(#e9baf4bdce)"><g transform="matrix(1, 0, 0, 1, 107, 111)"><g clip-path="url(#6c988cf340)"><g clip-path="url(#15ec9bb781)"><path fill="#ffffff" d="M 0.835938 0.898438 L 95.355469 0.898438 L 95.355469 95.417969 L 0.835938 95.417969 Z M 0.835938 0.898438 " fill-opacity="1" fill-rule="nonzero"/></g></g></g></g><g clip-path="url(#a20a29b06a)"><g clip-path="url(#98d6d4343c)"><g transform="matrix(1, 0, 0, 1, 54, 111)"><g clip-path="url(#6646534fed)"><g clip-path="url(#2dcea193a4)"><g clip-path="url(#4804888bcb)"><path fill="#ffffff" d="M 0.242188 0.898438 L 94.757812 0.898438 L 94.757812 95.417969 L 0.242188 95.417969 Z M 0.242188 0.898438 " fill-opacity="1" fill-rule="nonzero"/></g></g></g></g></g></g><g clip-path="url(#f1b0b4c9df)"><g transform="matrix(1, 0, 0, 1, 107, 116)"><g clip-path="url(#5dcb0ad361)"><g clip-path="url(#121e71bd1e)"><path fill="#555a92" d="M 0.835938 0.96875 L 21.480469 0.96875 L 21.480469 90.390625 L 0.835938 90.390625 Z M 0.835938 0.96875 " fill-opacity="1" fill-rule="nonzero"/></g></g></g></g><g clip-path="url(#ce25596703)"><g transform="matrix(1, 0, 0, 1, 128, 116)"><g clip-path="url(#b2913781cd)"><g clip-path="url(#8b4b659ac2)"><path fill="#555a92" d="M 62.238281 0.972656 L 62.238281 21.613281 L 0.152344 21.613281 L 0.152344 0.972656 Z M 62.238281 0.972656 " fill-opacity="1" fill-rule="nonzero"/></g></g></g></g><g clip-path="url(#f85e18c83d)"><g transform="matrix(1, 0, 0, 1, 128, 159)"><g clip-path="url(#795d7c1def)"><g clip-path="url(#4839b35799)"><path fill="#555a92" d="M 62.238281 0.160156 L 62.238281 20.800781 L 0.152344 20.800781 L 0.152344 0.160156 Z M 62.238281 0.160156 " fill-opacity="1" fill-rule="nonzero"/></g></g></g></g><g clip-path="url(#74a336ac82)"><g clip-path="url(#645e618083)"><g transform="matrix(1, 0, 0, 1, 101, 1)"><g clip-path="url(#6b033100f4)"><g clip-path="url(#7e9401089c)"><g clip-path="url(#8407df720c)"><path fill="#555a92" d="M 43.21875 0.136719 L 61.417969 10.777344 L 18.695312 83.851562 L 0.496094 73.210938 Z M 43.21875 0.136719 " fill-opacity="1" fill-rule="nonzero"/></g></g></g></g></g></g><g clip-path="url(#09ad0cdeb2)"><g clip-path="url(#6722493a8f)"><g transform="matrix(1, 0, 0, 1, 41, 0)"><g clip-path="url(#6b39bd28ff)"><g clip-path="url(#ab525c22fa)"><g clip-path="url(#053f1f736b)"><path fill="#555a92" d="M 0.375 11.394531 L 18.707031 0.984375 L 60.503906 74.589844 L 42.171875 85 Z M 0.375 11.394531 " fill-opacity="1" fill-rule="nonzero"/></g></g></g></g></g></g><g clip-path="url(#f669965dfc)"><g clip-path="url(#b725986c52)"><g transform="matrix(1, 0, 0, 1, 55, 74)"><g clip-path="url(#87bd8b502a)"><g clip-path="url(#e566a10e2d)"><g clip-path="url(#d86f743a64)"><path fill="#ffffff" d="M 0.871094 0.507812 L 32.003906 0.507812 L 32.003906 31.640625 L 0.871094 31.640625 Z M 0.871094 0.507812 " fill-opacity="1" fill-rule="nonzero"/></g></g></g></g></g></g><g clip-path="url(#7705a20b01)"><g clip-path="url(#72dc24d6bf)"><g transform="matrix(1, 0, 0, 1, 116, 74)"><g clip-path="url(#fc2b2fdf22)"><g clip-path="url(#3b933b9a3e)"><g clip-path="url(#a8566dad89)"><path fill="#ffffff" d="M 0.390625 0.507812 L 31.523438 0.507812 L 31.523438 31.640625 L 0.390625 31.640625 Z M 0.390625 0.507812 " fill-opacity="1" fill-rule="nonzero"/></g></g></g></g></g></g><g clip-path="url(#0fef0aee1d)"><path fill="#ffffff" d="M 71.429688 206.015625 C 52.097656 209.574219 49.210938 212.460938 45.652344 231.792969 C 42.09375 212.460938 39.207031 209.574219 19.875 206.015625 C 39.207031 202.457031 42.09375 199.570312 45.652344 180.238281 C 49.210938 199.570312 52.097656 202.457031 71.429688 206.015625 Z M 71.429688 206.015625 " fill-opacity="1" fill-rule="nonzero"/></g></g></g></svg>